<svg width="512" height="512" viewBox="0 0 512 512" xmlns="http://www.w3.org/2000/svg">
  <path d="M100 40h220l100 100v312c0 11-9 20-20 20H100c-11 0-20-9-20-20V60c0-11 9-20 20-20z" fill="#FFCC66"/>
  <path d="M320 40v80c0 11 9 20 20 20h80L320 40z" fill="#1A1A1A" fill-opacity="0.8"/>
  <g fill="#1A1A1A" fill-opacity="0.3">
    <rect x="120" y="80" width="160" height="8" rx="4"/>
    <rect x="120" y="105" width="160" height="8" rx="4"/>
    <rect x="120" y="130" width="160" height="8" rx="4"/>
  </g>
  <rect x="26" y="240" width="460" height="150" rx="20" ry="20" fill="#1A1A1A"/>
  <text x="256" y="340" font-family="Arial, sans-serif" font-weight="900" font-size="85" text-anchor="middle" fill="white">IMPORT</text>
  <rect x="180" y="430" width="152" height="6" rx="3" fill="#1A1A1A"/>
  <rect x="145" y="445" width="222" height="3" rx="1.5" fill="#1A1A1A"/>
</svg>
